<?xml version="1.0" encoding="UTF-8" standalone="no"?>
<!-- Created with Inkscape (http://www.inkscape.org/) -->

<svg
   version="1.1"
   id="svg1"
   width="200.93359"
   height="192.87997"
   viewBox="0 0 200.93359 192.87998"
   xmlns="http://www.w3.org/2000/svg"
   xmlns:svg="http://www.w3.org/2000/svg">
  <defs
     id="defs1" />
  <g
     id="g1"
     transform="translate(-4821.1866,-70.426718)">
    <path
       id="path17"
       d="m 36418.4,14498.1 h -239.5 v 958 h 239.5 z"
       style="fill:none;stroke:#231f20;stroke-width:40;stroke-linecap:butt;stroke-linejoin:miter;stroke-miterlimit:10;stroke-dasharray:none;stroke-opacity:1"
       transform="matrix(0.13333333,0,0,-0.13333333,0,2193.72)" />
    <path
       id="path18"
       d="m 36827.6,14498.1 h -239.5 v 458.2 h 239.5 z"
       style="fill:none;stroke:#231f20;stroke-width:40;stroke-linecap:butt;stroke-linejoin:miter;stroke-miterlimit:10;stroke-dasharray:none;stroke-opacity:1"
       transform="matrix(0.13333333,0,0,-0.13333333,0,2193.72)" />
    <path
       id="path19"
       d="m 37236.8,14498.1 h -239.5 v 656 h 239.5 z"
       style="fill:none;stroke:#231f20;stroke-width:40;stroke-linecap:butt;stroke-linejoin:miter;stroke-miterlimit:10;stroke-dasharray:none;stroke-opacity:1"
       transform="matrix(0.13333333,0,0,-0.13333333,0,2193.72)" />
    <path
       id="path20"
       d="m 37645.9,14498.1 h -239.4 v 270.8 h 239.4 z"
       style="fill:none;stroke:#231f20;stroke-width:40;stroke-linecap:butt;stroke-linejoin:miter;stroke-miterlimit:10;stroke-dasharray:none;stroke-opacity:1"
       transform="matrix(0.13333333,0,0,-0.13333333,0,2193.72)" />
    <path
       id="path21"
       d="m 36392.5,15810.9 c 0,-51.9 -42,-93.9 -93.8,-93.9 -51.9,0 -93.9,42 -93.9,93.9 0,51.8 42,93.8 93.9,93.8 51.8,0 93.8,-42 93.8,-93.8 z"
       style="fill:none;stroke:#231f20;stroke-width:40;stroke-linecap:butt;stroke-linejoin:miter;stroke-miterlimit:10;stroke-dasharray:none;stroke-opacity:1"
       transform="matrix(0.13333333,0,0,-0.13333333,0,2193.72)" />
    <path
       id="path22"
       d="m 36801.7,15358.1 c 0,-51.8 -42,-93.9 -93.9,-93.9 -51.8,0 -93.8,42.1 -93.8,93.9 0,51.8 42,93.9 93.8,93.9 51.9,0 93.9,-42.1 93.9,-93.9 z"
       style="fill:none;stroke:#231f20;stroke-width:40;stroke-linecap:butt;stroke-linejoin:miter;stroke-miterlimit:10;stroke-dasharray:none;stroke-opacity:1"
       transform="matrix(0.13333333,0,0,-0.13333333,0,2193.72)" />
    <path
       id="path23"
       d="m 37210.9,15545.8 c 0,-51.8 -42,-93.8 -93.9,-93.8 -51.8,0 -93.8,42 -93.8,93.8 0,51.9 42,93.9 93.8,93.9 51.9,0 93.9,-42 93.9,-93.9 z"
       style="fill:none;stroke:#231f20;stroke-width:40;stroke-linecap:butt;stroke-linejoin:miter;stroke-miterlimit:10;stroke-dasharray:none;stroke-opacity:1"
       transform="matrix(0.13333333,0,0,-0.13333333,0,2193.72)" />
    <path
       id="path24"
       d="m 37620.1,15082 c 0,-51.8 -42.1,-93.9 -93.9,-93.9 -51.8,0 -93.9,42.1 -93.9,93.9 0,51.9 42.1,93.9 93.9,93.9 51.8,0 93.9,-42 93.9,-93.9 z"
       style="fill:none;stroke:#231f20;stroke-width:40;stroke-linecap:butt;stroke-linejoin:miter;stroke-miterlimit:10;stroke-dasharray:none;stroke-opacity:1"
       transform="matrix(0.13333333,0,0,-0.13333333,0,2193.72)" />
    <path
       id="path25"
       d="m 36366.2,15745.8 287.2,-311.4"
       style="fill:none;stroke:#231f20;stroke-width:40;stroke-linecap:butt;stroke-linejoin:miter;stroke-miterlimit:10;stroke-dasharray:none;stroke-opacity:1"
       transform="matrix(0.13333333,0,0,-0.13333333,0,2193.72)" />
    <path
       id="path26"
       d="m 36801.7,15358.1 229.4,150.1"
       style="fill:none;stroke:#231f20;stroke-width:40;stroke-linecap:butt;stroke-linejoin:miter;stroke-miterlimit:10;stroke-dasharray:none;stroke-opacity:1"
       transform="matrix(0.13333333,0,0,-0.13333333,0,2193.72)" />
    <path
       id="path27"
       d="m 37181.5,15477.8 301.6,-312.4"
       style="fill:none;stroke:#231f20;stroke-width:40;stroke-linecap:butt;stroke-linejoin:miter;stroke-miterlimit:10;stroke-dasharray:none;stroke-opacity:1"
       transform="matrix(0.13333333,0,0,-0.13333333,0,2193.72)" />
  </g>
</svg>
